<svg width="30" height="24" viewBox="0 0 30 24" fill="none" xmlns="http://www.w3.org/2000/svg">
<path d="M9.77377 23.2628C20.3875 23.2628 26.1917 14.4697 26.1917 6.84489C26.1917 6.59515 26.1866 6.34644 26.1754 6.09911C27.302 5.28454 28.2812 4.26804 29.0538 3.11102C28.0199 3.57077 26.9071 3.87984 25.7401 4.01968C26.9313 3.30503 27.846 2.17502 28.2774 0.827941C27.1625 1.48892 25.9277 1.96914 24.6133 2.22851C23.5604 1.10692 22.0611 0.405518 20.4011 0.405518C17.2147 0.405518 14.6304 2.98959 14.6304 6.17496C14.6304 6.628 14.6812 7.06831 14.7801 7.49074C9.98429 7.24943 5.73149 4.95345 2.8858 1.46192C2.39045 2.31451 2.10459 3.3052 2.10459 4.36229C2.10459 6.36399 3.12333 8.1316 4.67234 9.16529C3.72567 9.13623 2.83644 8.87634 2.05901 8.44377C2.05815 8.46802 2.05815 8.49158 2.05815 8.51738C2.05815 11.312 4.04713 13.6453 6.6878 14.174C6.20277 14.3059 5.69245 14.377 5.16614 14.377C4.79497 14.377 4.43309 14.3405 4.08153 14.2729C4.81613 16.5656 6.94648 18.234 9.47208 18.2808C7.49704 19.8287 5.00911 20.7508 2.30514 20.7508C1.84006 20.7508 1.38031 20.7241 0.92865 20.6708C3.48246 22.3077 6.51494 23.263 9.77394 23.263" fill="#ACABBF"/>
</svg>
